<svg width="200" height="200" viewBox="0 0 200 200" fill="none" xmlns="http://www.w3.org/2000/svg">
<g clip-path="url(#clip0_1005_3178)">
<path d="M39.3432 154.736C40.0166 155.36 41.2368 155.775 42.4826 155.367C43.7154 155.003 44.8338 153.701 44.8184 152.148C44.8338 150.596 43.7154 149.294 42.4826 148.93C41.2368 148.522 40.0166 148.937 39.3432 149.561C38.6445 150.187 38.42 150.939 38.4036 151.416C38.3875 151.906 38.5244 152.151 38.6271 152.148C38.8703 152.178 38.9631 151.127 40.0394 150.482C40.5502 150.174 41.2982 150.055 41.9733 150.345C42.6447 150.618 43.192 151.332 43.1859 152.148C43.192 152.965 42.6447 153.679 41.9733 153.952C41.2982 154.242 40.5502 154.123 40.0394 153.815C38.9631 153.169 38.8703 152.119 38.6271 152.148C38.5244 152.146 38.3875 152.391 38.4036 152.881C38.4201 153.358 38.6445 154.11 39.3432 154.736Z" fill="#6C727F"/>
<path d="M160.015 89.6452C160.688 90.2698 161.909 90.6847 163.155 90.277C164.387 89.9125 165.506 88.6103 165.49 87.0581C165.506 85.5058 164.387 84.2037 163.155 83.8392C161.909 83.4316 160.689 83.8465 160.015 84.4709C159.316 85.0969 159.092 85.8486 159.076 86.3258C159.059 86.8157 159.196 87.0604 159.299 87.0581C159.542 87.0872 159.635 86.0372 160.711 85.3917C161.222 85.0833 161.97 84.9642 162.645 85.2544C163.317 85.5273 163.864 86.2413 163.858 87.0581C163.864 87.8748 163.317 88.5889 162.645 88.8617C161.97 89.152 161.222 89.0328 160.711 88.7246C159.635 88.079 159.542 87.029 159.299 87.0581C159.196 87.0558 159.059 87.3004 159.076 87.7905C159.092 88.2676 159.316 89.0192 160.015 89.6452Z" fill="#6C727F"/>
<path d="M143.897 29.7042C143.472 29.553 141.915 32.8333 140.419 37.0312C138.923 41.2292 138.054 44.7548 138.479 44.9062C138.903 45.0575 140.46 41.7772 141.957 37.5792C143.453 33.3814 144.322 29.8555 143.897 29.7042Z" fill="#6C727F"/>
<path d="M145.226 43.6032C147.356 41.8562 148.85 40.1575 148.564 39.809C148.278 39.4605 146.32 40.5943 144.191 42.3413C142.062 44.0881 140.568 45.7869 140.853 46.1354C141.139 46.4839 143.097 45.3502 145.226 43.6032Z" fill="#6C727F"/>
<path d="M144.475 49.9741C144.684 50.3736 148.043 49.0299 151.978 46.973C155.913 44.916 158.934 42.9245 158.725 42.5251C158.517 42.1256 155.157 43.4693 151.222 45.5262C147.287 47.5832 144.266 49.5745 144.475 49.9741Z" fill="#6C727F"/>
<path d="M34.5293 56.6574C34.4277 57.5698 34.7426 58.5551 34.9982 59.5106C39.4821 76.2318 46.0076 99.0181 50.8454 115.705C55.951 133.315 60.6611 149.233 64.1488 160.732C65.9096 166.416 67.3425 171.041 68.3603 174.327C68.5459 175.161 69.1119 175.939 69.7352 176.254C70.3502 176.623 70.9974 176.618 71.4142 176.619C71.9165 176.627 72.2679 176.623 72.493 176.609C72.5 176.628 72.5121 176.647 72.5121 176.667C77.3115 175.372 81.0951 174.33 83.7359 173.619C84.9547 173.264 85.8944 172.985 86.5799 172.781C87.2147 172.604 87.5449 172.477 87.5449 172.451C87.5195 172.401 87.1893 172.451 86.5292 172.578C85.8181 172.731 84.8786 172.959 83.6343 173.213C81.1457 173.797 77.5907 174.66 73.0453 175.727C70.2267 165.621 66.0875 150.892 61.1106 133.092C57.5793 120.671 44.5371 74.8862 38.1043 52.646C44.7828 50.8939 51.258 49.1925 57.5047 47.5673C56.6947 49.3224 56.3113 51.2329 56.3113 52.5699C54.5429 53.0751 52.1165 53.7717 49.9884 54.4489C49.5566 54.5759 49.3027 54.6774 49.2519 54.7282C49.3282 54.7282 49.5821 54.6773 50.0391 54.5759C51.9813 54.1346 52.0997 54.0733 56.2859 53.0269C56.2859 55.0072 56.7011 56.2451 56.8193 56.9375C56.7905 57.1965 55.9512 57.2529 87.545 48.8625C93.5632 47.1864 98.4387 45.8153 101.918 44.8503C105.016 43.9615 106.844 43.3774 107.098 43.1744H107.123C107.174 43.149 106.971 42.5903 106.412 41.6253C106.133 41.1936 105.803 40.6351 105.346 40.0509C109.358 38.9844 113.548 37.8671 117.915 36.6991C118.906 36.3435 119.642 36.5465 120.201 37.1814C121.105 38.2454 126.768 66.3487 137.214 89.3901C140.26 96.0481 145.284 105.964 151.561 109.73C155.914 112.291 158.875 110.779 159.129 110.771H159.154C158.461 111.511 146.014 130.371 122.131 144.163C117.027 147.134 111.821 149.724 106.565 151.883C103.949 153 101.334 153.99 98.6927 154.879C97.3467 155.362 96.2042 155.793 94.9852 155.616C93.7664 155.514 92.5983 154.981 91.7095 154.168C84.9549 145.966 79.089 137.205 74.1881 128.927C69.2619 120.598 65.2498 112.523 61.9994 104.956C55.4987 89.8218 51.9436 76.922 49.8361 67.9583C48.7949 63.4636 48.1093 59.9593 47.6521 57.5723C47.3729 56.4042 47.9823 55.5663 48.4395 55.2108C48.8965 54.8299 49.2267 54.7791 49.2267 54.7283C49.2267 54.7283 48.8711 54.7283 48.3378 55.0839C47.8299 55.414 47.0681 56.3281 47.3222 57.6232C47.6776 60.0354 48.287 63.5651 49.2267 68.0852C51.1311 77.1252 54.5338 90.1519 60.9329 105.413C67.4082 120.674 76.7529 138.094 90.6937 155.285C91.8111 156.301 93.2839 156.987 94.8329 157.139C96.3818 157.368 97.9564 156.784 99.2006 156.327C101.867 155.438 104.533 154.448 107.174 153.33C112.481 151.146 117.763 148.556 122.918 145.56C128.555 142.31 134.015 138.526 139.22 134.234C139.246 134.209 139.271 134.184 139.297 134.158C143.817 131.035 147.905 128.013 151.435 125.144C152.146 127.607 152.907 130.121 153.644 132.66C154.406 135.275 155.193 137.866 155.929 140.405C156.31 141.7 156.691 142.97 157.072 144.214L157.605 146.068C157.732 146.576 157.758 147.109 157.656 147.617C157.427 148.632 156.716 149.496 155.777 149.902C154.609 150.283 153.441 150.664 152.298 151.045C149.936 151.807 147.626 152.543 145.366 153.279C136.376 156.2 128.276 158.841 121.445 161.075C114.691 163.31 109.206 165.163 105.346 166.459C103.517 167.093 102.07 167.627 101.003 167.982C100.166 168.312 99.6831 168.515 99.556 168.642C99.7083 168.642 100.242 168.541 101.105 168.312C102.172 168.007 103.67 167.576 105.549 167.043C109.434 165.875 114.97 164.224 121.801 162.167C128.657 160.034 136.783 157.52 145.823 154.701C148.083 153.99 150.393 153.279 152.755 152.543C153.974 152.137 155.066 151.832 156.412 151.35C157.808 150.766 158.9 149.471 159.205 147.947C159.383 147.21 159.357 146.398 159.154 145.662L158.621 143.757C158.24 142.513 157.859 141.243 157.503 139.948C156.742 137.409 155.98 134.819 155.218 132.203C154.406 129.435 153.593 126.743 152.806 124.052V124.026C155.908 121.589 161.771 116.342 163.369 112.447C164.004 110.974 163.674 109.451 163.014 108.892C162.658 108.562 162.354 108.384 162.176 108.333L162.15 108.308C162.1 108.232 162.049 108.206 161.998 108.156L161.389 107.622C160.14 108.59 159.529 108.892 158.342 109.324C158.077 109.233 153.61 112.091 146.381 102.468C146.381 102.468 146.381 102.442 146.356 102.442C143.664 93.4785 141.227 85.378 139.144 78.5727C134.605 64.1427 134.821 64.5349 132.644 58.0041C132.288 57.0139 132.085 56.5059 132.034 56.5059C131.983 56.5313 132.085 57.0645 132.313 58.1057C133.994 64.5238 132.812 60.1271 138.027 78.9028C139.627 84.5655 141.531 91.1422 143.613 98.3539C141.734 95.2306 140.109 91.9802 138.636 88.7553C127.893 65.1683 122.437 37.7173 121.217 36.3691C120.491 35.4303 119.294 34.9521 117.585 35.4548C113.04 36.7245 108.647 37.918 104.482 39.0607C103.193 37.6785 102.008 36.8369 100.953 36.2167C126.854 29.309 117.646 31.7603 120.556 30.9857C122.156 30.5285 123.807 31.3411 124.492 32.56C124.866 33.3726 127.367 41.2982 127.616 42.1077C128.047 43.3774 128.301 44.0122 128.327 44.0122C128.378 43.9869 128.225 43.3013 127.895 42.0062C125.621 33.5592 125.622 33.4256 125.102 32.2299C124.314 30.7062 122.334 29.6397 120.353 30.173C110.565 32.6199 112.433 32.0921 99.5054 35.404C93.3742 32.4213 87.5711 34.4136 87.3167 34.4136C87.3891 34.6676 88.3577 30.5145 85.5392 26.9734C83.5838 24.4847 80.1812 23.0121 76.7276 23.3929C71.0757 23.9372 66.7207 29.481 68.4748 35.3023C69.0574 37.0501 69.7975 38.0091 70.684 38.9844C70.684 38.9844 70.7094 38.9844 70.7094 39.0098C70.4005 39.093 65.9369 40.3582 65.0976 40.6604C62.3805 41.5999 60.0951 43.4536 58.5461 45.7897C51.3852 47.6181 43.8687 49.5226 36.1239 51.4778C36.2508 51.9096 36.3525 52.3158 36.4794 52.7475C36.4809 52.7513 36.4817 52.7552 36.4833 52.7591C36.4023 52.8626 36.3229 52.9639 36.2271 53.09C35.7583 53.7781 34.6623 54.8056 34.5293 56.6574ZM162.506 108.816C166.32 112.638 152.838 122.461 148.438 125.855C156.863 117.429 162.132 109.304 162.506 108.816ZM57.9364 52.1127C57.911 52.062 57.9364 51.9857 57.9364 51.9351C58.2975 47.8425 61.2483 43.7424 65.6559 42.2094C66.5675 41.8621 66.632 41.8819 74.1119 39.6955C72.447 38.3873 70.7689 37.3058 70.0236 34.8199C68.5309 30.1063 72.1045 25.3921 76.9051 24.8913C81.7609 24.3001 86.4477 27.8912 86.2243 33.2456C86.1421 34.4877 85.8289 35.0129 85.4625 36.2167C87.1502 35.8094 92.4068 33.5843 98.0322 35.7849C104.118 37.814 106.792 42.9263 107.047 43.149C106.666 43.149 104.838 43.5298 101.74 44.2409C98.2609 45.0789 93.3092 46.2723 87.2402 47.7451C64.0625 53.6116 84.5453 48.3769 58.0887 55.1092C58.0633 55.1092 58.0633 55.1092 58.0633 55.0583C57.9331 54.2506 57.7953 53.0998 57.9364 52.1127ZM36.5001 53.2731C36.5377 53.2092 36.5635 53.1624 36.5976 53.1033C36.6007 53.1117 36.6025 53.1201 36.6059 53.1285C40.8312 68.0089 40.6561 67.3417 59.7645 133.473C65.0691 151.366 69.435 166.214 72.4311 176.447C72.2073 176.403 71.8753 176.351 71.4392 176.291C70.5943 176.276 69.2346 175.802 68.9705 174.15C68.0731 170.829 66.8098 166.155 65.2573 160.411C62.0533 148.829 57.5187 132.861 52.4131 115.25C35.7833 57.8905 35.075 58.2617 35.164 56.6877C35.1707 55.0804 36.086 54.0535 36.5001 53.2731Z" fill="#6C727F"/>
<path d="M80.1039 35.5013C81.6535 34.2203 81.4795 32.3395 81.1721 32.3485C80.9211 32.3034 80.8789 33.6773 79.4307 34.5637C78.7436 34.9856 77.7148 35.1654 76.7577 34.7928C75.8067 34.4449 75.0014 33.4741 75.0095 32.3485C74.9946 30.2608 77.5333 28.9687 79.4307 30.1332C80.8789 31.0197 80.921 32.3937 81.1721 32.3485C81.2721 32.3516 81.4175 32.0391 81.3657 31.4323C81.2021 29.4243 78.7877 27.6935 76.2715 28.4809C74.7869 28.899 73.3636 30.4373 73.3771 32.3485C73.3527 35.7935 77.5837 37.6485 80.1039 35.5013Z" fill="#6C727F"/>
<path d="M65.8225 67.8661C65.3961 68.0122 69.1028 79.9482 74.1016 94.5258C76.0952 100.34 77.9881 105.678 79.5767 110.007C74.5582 111.875 71.4916 113.133 71.5628 113.341C71.6339 113.55 74.8389 112.667 79.9677 111.071C82.1561 116.992 83.6826 120.739 83.9248 120.656C84.1666 120.573 83.0767 116.692 81.1776 110.692C86.4266 109.042 93.3891 106.753 101.033 104.144C117.163 98.6374 130.121 93.8278 129.976 93.4011C129.83 92.9746 116.636 97.0924 100.505 102.599C92.873 105.204 85.9733 107.647 80.8135 109.55C79.4126 105.162 77.6349 99.7968 75.6458 93.9964C70.6469 79.4187 66.2489 67.7198 65.8225 67.8661Z" fill="#6C727F"/>
<path d="M80.4211 72.1872C79.5359 72.2766 78.9547 72.6218 78.3575 72.8149L76.5127 73.5135C74.7598 74.1547 73.4327 76.2569 74.3041 78.5833C76.8754 85.3373 81.2135 96.3536 83.3337 101.573C83.5989 102.247 83.9191 103.117 84.5447 103.636C85.7405 104.734 87.3304 104.689 88.2543 104.233C90.0335 103.454 90.9984 102.973 90.9584 102.868C90.9184 102.763 89.8773 103.043 88.029 103.639C87.2087 103.941 86.0132 103.847 85.178 102.978C84.7429 102.565 84.5719 101.987 84.3047 101.205C82.1971 95.2287 78.3141 84.6285 75.8183 78.0091C75.3233 76.6052 76.061 75.4175 77.0917 75.0398C77.6205 74.8295 80.2565 73.8154 80.5732 73.8041C81.5208 73.6949 82.4753 74.2731 82.8377 75.1211C85.2925 81.4465 88.9357 90.8433 92.4113 99.2085C92.5984 99.6925 92.6088 100.185 92.5437 100.613C92.1547 102.396 90.8303 102.745 90.9584 102.868C90.9725 102.911 91.2618 102.896 91.7375 102.634C92.91 101.989 93.5757 100.41 93.1528 98.9726C90.9545 92.4076 87.0962 81.9643 84.3003 74.4743C83.6881 73.0128 82.0638 72.0103 80.4211 72.1872Z" fill="#6C727F"/>
<path d="M109.828 93.1692C110.653 94.181 111.871 94.5578 112.848 94.4654C113.881 94.3548 114.487 93.8936 115.043 93.6798C116.14 93.1595 116.727 92.8219 116.687 92.7165C116.647 92.6113 115.984 92.748 114.818 93.0857C114.227 93.2221 113.513 93.5752 112.811 93.5534C112.085 93.5469 111.253 93.1922 110.744 92.467C110.494 92.1325 110.367 91.658 110.156 91.0651C108.59 86.5937 107.778 84.4155 106.631 81.2918C106.186 80.204 106.766 78.7953 107.937 78.3796C108.708 78.0858 109.469 77.7953 110.221 77.5089C111.053 77.1622 111.45 77.0571 112.075 77.167C112.641 77.2753 113.149 77.6056 113.475 78.0544C113.706 78.3506 113.083 76.9311 117.137 86.9202C117.513 87.8912 118.037 88.8842 118.177 89.5279C118.314 90.2504 118.135 90.9186 117.871 91.3892C117.315 92.3458 116.619 92.5891 116.687 92.7165C116.684 92.7894 117.517 92.7914 118.398 91.7438C118.811 91.2261 119.165 90.4044 119.082 89.4095C118.931 88.3546 118.54 87.5816 118.216 86.5109C114.971 77.322 115.188 77.8286 114.745 77.1502C113.722 75.675 111.786 75.0228 109.645 75.9904C108.892 76.2742 108.13 76.562 107.358 76.8532C105.326 77.5674 104.351 80.0387 105.136 81.8589C106.45 85.2153 107.193 87.1438 108.978 91.5117C109.194 92.0147 109.398 92.647 109.828 93.1692Z" fill="#6C727F"/>
<path d="M99.249 74.8713C98.239 74.1887 96.7432 74.1458 95.7072 74.6275C94.7705 74.9813 93.8206 75.3401 92.859 75.7031C91.0148 76.3947 89.9632 78.4728 90.636 80.4352C93.0092 86.6449 93.7284 88.3755 96.7136 95.8295C96.9484 96.4031 97.2151 97.164 97.7461 97.6717C98.2478 98.1838 98.8676 98.4935 99.471 98.6221C100.733 98.9123 101.72 98.3104 102.347 98.0358C103.722 97.4101 104.463 97.0143 104.423 96.9089C104.383 96.8035 103.566 96.9986 102.122 97.4415C101.372 97.668 100.578 98.0342 99.6924 97.7368C98.366 97.3357 98.1056 96.3179 97.7928 95.4202C95.7261 89.6515 94.5317 86.2536 92.1641 79.9174C91.7863 78.7717 92.4096 77.6208 93.4378 77.2295C94.3982 76.8639 95.3472 76.5024 96.2829 76.1459C97.0744 75.7947 97.7739 75.8619 98.4084 76.2319C99.0668 76.6126 99.2787 77.1814 99.6362 78.1515C101.288 82.3789 103.473 87.861 105.554 92.8442C106.038 93.7753 106.016 94.5528 105.786 95.2121C105.273 96.5046 104.335 96.7826 104.423 96.9089C104.388 96.9782 105.505 96.9677 106.367 95.4691C106.777 94.7656 106.862 93.539 106.407 92.5206C104.655 87.3927 102.636 81.7901 101.094 77.5987C100.849 76.8407 100.359 75.4725 99.249 74.8713Z" fill="#6C727F"/>
<path d="M132.869 108.011C129.486 111.415 127.106 108.855 123.543 109.936C120.299 110.963 118.843 115.3 114.413 117.212C114.413 117.212 114.393 117.224 114.395 117.208C114.345 116.988 114.092 115.884 114.065 115.765C113.825 114.74 113.585 113.708 113.342 112.668C113.245 112.924 111.935 116.731 111.484 117.264C109.865 119.994 106.441 122.112 103.301 121.989C104.751 119.843 104.294 116.806 101.887 116.597C98.382 116.329 97.4263 120.976 100.761 122.905C100.052 123.476 92.7029 128.923 92.9167 129.196C93.1541 129.497 101.319 123.984 102.011 123.399C105.388 124.268 110.412 122.269 112.932 118.001L112.938 117.974L112.879 117.681L112.862 117.602L112.854 117.563L112.85 117.544C112.881 117.67 113.27 119.279 113.321 119.398C113.576 119.289 114.538 118.877 114.283 118.987C120.01 116.626 121.01 112.156 123.949 111.119C125.162 110.677 126.537 110.841 127.811 110.852C130.303 110.93 131.787 110.228 133.289 108.397C134.161 107.281 134.493 106.597 134.425 106.543C134.337 106.472 133.834 107.058 132.869 108.011ZM101.932 121.709C100.537 121.158 100.019 119.879 100.264 119.043C100.383 118.444 101.147 117.982 101.779 118.028C102.747 118.054 103.406 119.803 101.932 121.709Z" fill="#6C727F"/>
<path d="M114.063 115.765C114.064 115.77 114.066 115.776 114.067 115.782C114.06 115.749 114.059 115.747 114.063 115.765Z" fill="#6C727F"/>
<path d="M113.668 132.241C112.549 131.894 111.366 133.018 111.692 134.225C110.016 136.374 108.008 137.754 106.459 138.517C104.502 139.476 103.225 139.706 103.258 139.883C103.268 140 104.611 140.057 106.784 139.273C108.572 138.62 110.982 137.243 112.977 134.785C116.282 134.166 119.831 132.655 122.841 130.073C124.886 128.311 125.759 127.002 125.992 126.741L126.063 126.781C126.767 127.164 127.61 127.142 128.303 126.793C129.949 125.965 132.647 122.622 133.763 120.968C133.98 120.643 133.73 120.83 134.796 120.535C139.43 119.264 142.613 116.308 142.361 116.079C142.218 115.887 140.543 117.306 137.257 118.548C134.337 119.617 133.263 119.424 133.069 119.695C131.94 121.199 130.978 122.489 129.053 124.279C128.456 124.827 127.531 125.798 126.833 125.397C126.655 125.372 126.449 124.472 126.167 123.797C124.627 125.881 123.902 127.002 121.783 128.829C119.483 130.803 116.859 132.125 114.297 132.907L114.542 132.512L113.668 132.241Z" fill="#6C727F"/>
<path d="M83.0535 45.925C92.5198 43.5208 100.104 41.2177 99.9931 40.7808C99.8821 40.3439 92.1181 41.9387 82.6517 44.3429C73.1852 46.7469 65.6012 49.0501 65.7121 49.4871C65.8231 49.924 73.5871 48.3292 83.0535 45.925Z" fill="#6C727F"/>
<path d="M76.6861 26.7521C76.6725 26.5325 76.0786 26.3519 75.1429 26.5281C74.2288 26.6905 72.9027 27.3099 72.037 28.5975C71.1608 29.8653 71.0475 31.3357 71.2506 32.252C71.4438 33.1928 71.846 33.6647 72.0517 33.5933C72.494 33.4806 71.5519 31.2557 72.8418 29.4304C74.3304 27.3237 76.7658 27.2051 76.6861 26.7521Z" fill="#6C727F"/>
<path d="M95.9124 81.5914C95.4909 81.7507 96.1843 84.6207 97.4616 88.0014C98.7388 91.3823 100.116 93.9939 100.538 93.8345C100.96 93.6753 100.266 90.8055 98.9886 87.4245C97.7114 84.0437 96.3342 81.4321 95.9124 81.5914Z" fill="#6C727F"/>
</g>
<defs>
<clipPath id="clip0_1005_3178">
<rect width="200" height="200" fill="white"/>
</clipPath>
</defs>
</svg>
